<mxfile host="www.draw.io" modified="2019-10-24T03:22:28.395Z" agent="Mozilla/5.0 (Windows NT 10.0; Win64; x64) AppleWebKit/537.36 (KHTML, like Gecko) Chrome/77.0.3865.120 Safari/537.36" etag="Qdfbnvy0etWElZrneAm0" version="12.1.4" type="github" pages="1">
  <diagram id="U2kxw9R3WgAqmOkXHNV_" name="第 1 页">
    <mxGraphModel dx="898" dy="490" grid="1" gridSize="10" guides="1" tooltips="1" connect="1" arrows="1" fold="1" page="1" pageScale="1" pageWidth="827" pageHeight="1169" math="0" shadow="0">
      <root>
        <mxCell id="0"/>
        <mxCell id="1" parent="0"/>
        <mxCell id="0pu8dsaGpCny_MNW1jt4-1" value="客户" style="strokeWidth=2;rounded=1;arcSize=10;whiteSpace=wrap;html=1;align=center;fontSize=14;" vertex="1" parent="1">
          <mxGeometry x="260" y="90" width="100" height="100" as="geometry"/>
        </mxCell>
        <mxCell id="0pu8dsaGpCny_MNW1jt4-2" value="联系人" style="strokeWidth=2;rounded=1;arcSize=10;whiteSpace=wrap;html=1;align=center;fontSize=14;" vertex="1" parent="1">
          <mxGeometry x="420" y="90" width="100" height="100" as="geometry"/>
        </mxCell>
        <mxCell id="0pu8dsaGpCny_MNW1jt4-3" value="潜在客户" style="strokeWidth=2;rounded=1;arcSize=10;whiteSpace=wrap;html=1;align=center;fontSize=14;" vertex="1" parent="1">
          <mxGeometry x="260" y="360" width="100" height="100" as="geometry"/>
        </mxCell>
        <mxCell id="0pu8dsaGpCny_MNW1jt4-4" value="商机" style="strokeWidth=2;rounded=1;arcSize=10;whiteSpace=wrap;html=1;align=center;fontSize=14;" vertex="1" parent="1">
          <mxGeometry x="260" y="240" width="100" height="100" as="geometry"/>
        </mxCell>
        <mxCell id="0pu8dsaGpCny_MNW1jt4-5" value="任务" style="strokeWidth=2;rounded=1;arcSize=10;whiteSpace=wrap;html=1;align=center;fontSize=14;" vertex="1" parent="1">
          <mxGeometry x="430" y="240" width="100" height="100" as="geometry"/>
        </mxCell>
        <mxCell id="0pu8dsaGpCny_MNW1jt4-7" value="" style="edgeStyle=entityRelationEdgeStyle;fontSize=12;html=1;endArrow=ERzeroToMany;endFill=1;startArrow=ERzeroToMany;entryX=0;entryY=0.5;entryDx=0;entryDy=0;exitX=1;exitY=0.5;exitDx=0;exitDy=0;" edge="1" parent="1" source="0pu8dsaGpCny_MNW1jt4-1" target="0pu8dsaGpCny_MNW1jt4-2">
          <mxGeometry width="100" height="100" relative="1" as="geometry">
            <mxPoint x="200" y="190" as="sourcePoint"/>
            <mxPoint x="300" y="90" as="targetPoint"/>
          </mxGeometry>
        </mxCell>
        <mxCell id="0pu8dsaGpCny_MNW1jt4-8" value="" style="edgeStyle=entityRelationEdgeStyle;fontSize=12;html=1;endArrow=ERoneToMany;exitX=1;exitY=0.5;exitDx=0;exitDy=0;entryX=0;entryY=0.5;entryDx=0;entryDy=0;" edge="1" parent="1" source="0pu8dsaGpCny_MNW1jt4-4" target="0pu8dsaGpCny_MNW1jt4-5">
          <mxGeometry width="100" height="100" relative="1" as="geometry">
            <mxPoint x="260" y="460" as="sourcePoint"/>
            <mxPoint x="360" y="360" as="targetPoint"/>
          </mxGeometry>
        </mxCell>
        <mxCell id="0pu8dsaGpCny_MNW1jt4-9" value="" style="edgeStyle=entityRelationEdgeStyle;fontSize=12;html=1;endArrow=ERoneToMany;exitX=0.5;exitY=1;exitDx=0;exitDy=0;entryX=0;entryY=0.25;entryDx=0;entryDy=0;" edge="1" parent="1" source="0pu8dsaGpCny_MNW1jt4-1" target="0pu8dsaGpCny_MNW1jt4-5">
          <mxGeometry width="100" height="100" relative="1" as="geometry">
            <mxPoint x="540" y="380" as="sourcePoint"/>
            <mxPoint x="610" y="380" as="targetPoint"/>
          </mxGeometry>
        </mxCell>
        <mxCell id="0pu8dsaGpCny_MNW1jt4-11" value="" style="edgeStyle=entityRelationEdgeStyle;fontSize=12;html=1;endArrow=ERzeroToMany;endFill=1;exitX=1;exitY=0.5;exitDx=0;exitDy=0;entryX=0;entryY=0.75;entryDx=0;entryDy=0;" edge="1" parent="1" source="0pu8dsaGpCny_MNW1jt4-3" target="0pu8dsaGpCny_MNW1jt4-5">
          <mxGeometry width="100" height="100" relative="1" as="geometry">
            <mxPoint x="520" y="460" as="sourcePoint"/>
            <mxPoint x="600" y="430" as="targetPoint"/>
          </mxGeometry>
        </mxCell>
        <mxCell id="0pu8dsaGpCny_MNW1jt4-13" value="" style="edgeStyle=entityRelationEdgeStyle;fontSize=12;html=1;endArrow=ERoneToMany;exitX=0.5;exitY=1;exitDx=0;exitDy=0;entryX=0.007;entryY=0.132;entryDx=0;entryDy=0;entryPerimeter=0;" edge="1" parent="1" source="0pu8dsaGpCny_MNW1jt4-2" target="0pu8dsaGpCny_MNW1jt4-5">
          <mxGeometry width="100" height="100" relative="1" as="geometry">
            <mxPoint x="540" y="380" as="sourcePoint"/>
            <mxPoint x="610" y="380" as="targetPoint"/>
          </mxGeometry>
        </mxCell>
        <mxCell id="0pu8dsaGpCny_MNW1jt4-14" value="" style="edgeStyle=entityRelationEdgeStyle;fontSize=12;html=1;endArrow=ERoneToMany;exitX=0.5;exitY=1;exitDx=0;exitDy=0;entryX=0;entryY=0.5;entryDx=0;entryDy=0;" edge="1" parent="1" source="0pu8dsaGpCny_MNW1jt4-1" target="0pu8dsaGpCny_MNW1jt4-4">
          <mxGeometry width="100" height="100" relative="1" as="geometry">
            <mxPoint x="540" y="380" as="sourcePoint"/>
            <mxPoint x="610" y="380" as="targetPoint"/>
          </mxGeometry>
        </mxCell>
      </root>
    </mxGraphModel>
  </diagram>
</mxfile>
